<svg xmlns="http://www.w3.org/2000/svg" width="428" height="468" viewBox="0 0 428 468" role="img" aria-label="animated chess board, knight to f3">
  <defs>
    <linearGradient id="cb-bg" x1="0" y1="0" x2="0" y2="1">
      <stop offset="0" stop-color="#0f1510"/><stop offset="1" stop-color="#0a0e0a"/>
    </linearGradient>
  </defs>
  <rect x="0.5" y="0.5" width="427" height="467" rx="14" fill="url(#cb-bg)" stroke="#1c3a24"/>
  <path d="M0.5 14 a13.5 13.5 0 0 1 13.5 -13.5 h400 a13.5 13.5 0 0 1 13.5 13.5 v26 h-427 z" fill="#12241a"/>
  <rect x="0.5" y="40" width="427" height="1" fill="#1c3a24"/>
  <circle cx="24" cy="20" r="6.5" fill="#ff5f56"/>
  <circle cx="44" cy="20" r="6.5" fill="#ffbd2e"/>
  <circle cx="64" cy="20" r="6.5" fill="#27c93f"/>
  <text x="86" y="24.5" text-anchor="start" font-family="ui-monospace,'SF Mono',Menlo,Consolas,monospace" font-size="12" fill="#7fe3a4">~$ ./chess.sh --opening Nf3</text>

  <rect x="30" y="60" width="46" height="46" fill="#123a24"/><rect x="76" y="60" width="46" height="46" fill="#0d2417"/><rect x="122" y="60" width="46" height="46" fill="#123a24"/><rect x="168" y="60" width="46" height="46" fill="#0d2417"/><rect x="214" y="60" width="46" height="46" fill="#123a24"/><rect x="260" y="60" width="46" height="46" fill="#0d2417"/><rect x="306" y="60" width="46" height="46" fill="#123a24"/><rect x="352" y="60" width="46" height="46" fill="#0d2417"/><rect x="30" y="106" width="46" height="46" fill="#0d2417"/><rect x="76" y="106" width="46" height="46" fill="#123a24"/><rect x="122" y="106" width="46" height="46" fill="#0d2417"/><rect x="168" y="106" width="46" height="46" fill="#123a24"/><rect x="214" y="106" width="46" height="46" fill="#0d2417"/><rect x="260" y="106" width="46" height="46" fill="#123a24"/><rect x="306" y="106" width="46" height="46" fill="#0d2417"/><rect x="352" y="106" width="46" height="46" fill="#123a24"/><rect x="30" y="152" width="46" height="46" fill="#123a24"/><rect x="76" y="152" width="46" height="46" fill="#0d2417"/><rect x="122" y="152" width="46" height="46" fill="#123a24"/><rect x="168" y="152" width="46" height="46" fill="#0d2417"/><rect x="214" y="152" width="46" height="46" fill="#123a24"/><rect x="260" y="152" width="46" height="46" fill="#0d2417"/><rect x="306" y="152" width="46" height="46" fill="#123a24"/><rect x="352" y="152" width="46" height="46" fill="#0d2417"/><rect x="30" y="198" width="46" height="46" fill="#0d2417"/><rect x="76" y="198" width="46" height="46" fill="#123a24"/><rect x="122" y="198" width="46" height="46" fill="#0d2417"/><rect x="168" y="198" width="46" height="46" fill="#123a24"/><rect x="214" y="198" width="46" height="46" fill="#0d2417"/><rect x="260" y="198" width="46" height="46" fill="#123a24"/><rect x="306" y="198" width="46" height="46" fill="#0d2417"/><rect x="352" y="198" width="46" height="46" fill="#123a24"/><rect x="30" y="244" width="46" height="46" fill="#123a24"/><rect x="76" y="244" width="46" height="46" fill="#0d2417"/><rect x="122" y="244" width="46" height="46" fill="#123a24"/><rect x="168" y="244" width="46" height="46" fill="#0d2417"/><rect x="214" y="244" width="46" height="46" fill="#123a24"/><rect x="260" y="244" width="46" height="46" fill="#0d2417"/><rect x="306" y="244" width="46" height="46" fill="#123a24"/><rect x="352" y="244" width="46" height="46" fill="#0d2417"/><rect x="30" y="290" width="46" height="46" fill="#0d2417"/><rect x="76" y="290" width="46" height="46" fill="#123a24"/><rect x="122" y="290" width="46" height="46" fill="#0d2417"/><rect x="168" y="290" width="46" height="46" fill="#123a24"/><rect x="214" y="290" width="46" height="46" fill="#0d2417"/><rect x="260" y="290" width="46" height="46" fill="#123a24"/><rect x="306" y="290" width="46" height="46" fill="#0d2417"/><rect x="352" y="290" width="46" height="46" fill="#123a24"/><rect x="30" y="336" width="46" height="46" fill="#123a24"/><rect x="76" y="336" width="46" height="46" fill="#0d2417"/><rect x="122" y="336" width="46" height="46" fill="#123a24"/><rect x="168" y="336" width="46" height="46" fill="#0d2417"/><rect x="214" y="336" width="46" height="46" fill="#123a24"/><rect x="260" y="336" width="46" height="46" fill="#0d2417"/><rect x="306" y="336" width="46" height="46" fill="#123a24"/><rect x="352" y="336" width="46" height="46" fill="#0d2417"/><rect x="30" y="382" width="46" height="46" fill="#0d2417"/><rect x="76" y="382" width="46" height="46" fill="#123a24"/><rect x="122" y="382" width="46" height="46" fill="#0d2417"/><rect x="168" y="382" width="46" height="46" fill="#123a24"/><rect x="214" y="382" width="46" height="46" fill="#0d2417"/><rect x="260" y="382" width="46" height="46" fill="#123a24"/><rect x="306" y="382" width="46" height="46" fill="#0d2417"/><rect x="352" y="382" width="46" height="46" fill="#123a24"/>
  <rect x="30.5" y="60.5" width="367" height="367" fill="none" stroke="#2a5c3c" stroke-width="1"/>
  <text x="53.0" y="446" text-anchor="middle" font-family="ui-monospace,monospace" font-size="11" fill="#5c8f70">a</text><text x="99.0" y="446" text-anchor="middle" font-family="ui-monospace,monospace" font-size="11" fill="#5c8f70">b</text><text x="145.0" y="446" text-anchor="middle" font-family="ui-monospace,monospace" font-size="11" fill="#5c8f70">c</text><text x="191.0" y="446" text-anchor="middle" font-family="ui-monospace,monospace" font-size="11" fill="#5c8f70">d</text><text x="237.0" y="446" text-anchor="middle" font-family="ui-monospace,monospace" font-size="11" fill="#5c8f70">e</text><text x="283.0" y="446" text-anchor="middle" font-family="ui-monospace,monospace" font-size="11" fill="#5c8f70">f</text><text x="329.0" y="446" text-anchor="middle" font-family="ui-monospace,monospace" font-size="11" fill="#5c8f70">g</text><text x="375.0" y="446" text-anchor="middle" font-family="ui-monospace,monospace" font-size="11" fill="#5c8f70">h</text><text x="16" y="87.0" text-anchor="middle" font-family="ui-monospace,monospace" font-size="11" fill="#5c8f70">8</text><text x="16" y="133.0" text-anchor="middle" font-family="ui-monospace,monospace" font-size="11" fill="#5c8f70">7</text><text x="16" y="179.0" text-anchor="middle" font-family="ui-monospace,monospace" font-size="11" fill="#5c8f70">6</text><text x="16" y="225.0" text-anchor="middle" font-family="ui-monospace,monospace" font-size="11" fill="#5c8f70">5</text><text x="16" y="271.0" text-anchor="middle" font-family="ui-monospace,monospace" font-size="11" fill="#5c8f70">4</text><text x="16" y="317.0" text-anchor="middle" font-family="ui-monospace,monospace" font-size="11" fill="#5c8f70">3</text><text x="16" y="363.0" text-anchor="middle" font-family="ui-monospace,monospace" font-size="11" fill="#5c8f70">2</text><text x="16" y="409.0" text-anchor="middle" font-family="ui-monospace,monospace" font-size="11" fill="#5c8f70">1</text>
  <text x="53.0" y="92.0" text-anchor="middle" font-size="30" fill="#3ddc84">&#9820;</text><text x="99.0" y="92.0" text-anchor="middle" font-size="30" fill="#3ddc84">&#9822;</text><text x="145.0" y="92.0" text-anchor="middle" font-size="30" fill="#3ddc84">&#9821;</text><text x="191.0" y="92.0" text-anchor="middle" font-size="30" fill="#3ddc84">&#9819;</text><text x="237.0" y="92.0" text-anchor="middle" font-size="30" fill="#3ddc84">&#9818;</text><text x="283.0" y="92.0" text-anchor="middle" font-size="30" fill="#3ddc84">&#9821;</text><text x="329.0" y="92.0" text-anchor="middle" font-size="30" fill="#3ddc84">&#9822;</text><text x="375.0" y="92.0" text-anchor="middle" font-size="30" fill="#3ddc84">&#9820;</text><text x="53.0" y="138.0" text-anchor="middle" font-size="30" fill="#3ddc84">&#9823;</text><text x="99.0" y="138.0" text-anchor="middle" font-size="30" fill="#3ddc84">&#9823;</text><text x="145.0" y="138.0" text-anchor="middle" font-size="30" fill="#3ddc84">&#9823;</text><text x="191.0" y="138.0" text-anchor="middle" font-size="30" fill="#3ddc84">&#9823;</text><text x="237.0" y="138.0" text-anchor="middle" font-size="30" fill="#3ddc84">&#9823;</text><text x="283.0" y="138.0" text-anchor="middle" font-size="30" fill="#3ddc84">&#9823;</text><text x="329.0" y="138.0" text-anchor="middle" font-size="30" fill="#3ddc84">&#9823;</text><text x="375.0" y="138.0" text-anchor="middle" font-size="30" fill="#3ddc84">&#9823;</text><text x="53.0" y="368.0" text-anchor="middle" font-size="30" fill="#c9d1d9">&#9817;</text><text x="99.0" y="368.0" text-anchor="middle" font-size="30" fill="#c9d1d9">&#9817;</text><text x="145.0" y="368.0" text-anchor="middle" font-size="30" fill="#c9d1d9">&#9817;</text><text x="191.0" y="368.0" text-anchor="middle" font-size="30" fill="#c9d1d9">&#9817;</text><text x="237.0" y="368.0" text-anchor="middle" font-size="30" fill="#c9d1d9">&#9817;</text><text x="283.0" y="368.0" text-anchor="middle" font-size="30" fill="#c9d1d9">&#9817;</text><text x="329.0" y="368.0" text-anchor="middle" font-size="30" fill="#c9d1d9">&#9817;</text><text x="375.0" y="368.0" text-anchor="middle" font-size="30" fill="#c9d1d9">&#9817;</text><text x="53.0" y="414.0" text-anchor="middle" font-size="30" fill="#c9d1d9">&#9814;</text><text x="99.0" y="414.0" text-anchor="middle" font-size="30" fill="#c9d1d9">&#9816;</text><text x="145.0" y="414.0" text-anchor="middle" font-size="30" fill="#c9d1d9">&#9815;</text><text x="191.0" y="414.0" text-anchor="middle" font-size="30" fill="#c9d1d9">&#9813;</text><text x="237.0" y="414.0" text-anchor="middle" font-size="30" fill="#c9d1d9">&#9812;</text><text x="283.0" y="414.0" text-anchor="middle" font-size="30" fill="#c9d1d9">&#9815;</text><text x="375.0" y="414.0" text-anchor="middle" font-size="30" fill="#c9d1d9">&#9814;</text>
  
<g>
  <text font-size="30" fill="#c9d1d9" text-anchor="middle" dy="9">&#9816;
    <animateMotion path="M329.0,405.0 L329.0,313.0 L283.0,313.0 L283.0,313.0 L329.0,313.0 L329.0,405.0" dur="3.6s" repeatCount="indefinite" keyPoints="0;0.2;0.4;0.6;0.8;1" keyTimes="0;0.2;0.4;0.6;0.8;1" calcMode="linear"/>
  </text>
</g>

  <text x="214.0" y="456" text-anchor="middle" font-family="ui-monospace,monospace" font-size="12" fill="#5c8f70">chess is my other favorite infinite loop &#9822;</text>
</svg>